<svg xmlns="http://www.w3.org/2000/svg" viewBox="0 0 512 512" width="512" height="512">
	<style>
		tspan { white-space:pre }
		.shp0 { fill: #000000 } 
		.shp1 { fill: none } 
	</style>
	<path id="Layer" fill-rule="evenodd" class="shp0" d="M410.74 228.41C407.9 230.69 404.29 231.79 400.66 231.49C397.03 231.19 393.65 229.51 391.23 226.79C388.8 224.07 387.51 220.52 387.62 216.88C387.73 213.24 389.24 209.78 391.82 207.22C392.39 206.65 453.97 150.47 425.53 101.97C412.44 78.93 346.03 64.43 298.67 59.31L298.67 104.25C307.54 105.06 316.38 106.14 325.18 107.48C333.99 108.82 342.75 110.42 351.46 112.29C360.17 114.15 368.82 116.28 377.4 118.66C385.98 121.05 394.49 123.69 402.91 126.6C406.43 127.96 409.26 130.66 410.79 134.1C412.32 137.55 412.42 141.47 411.07 144.99C409.71 148.51 407.01 151.34 403.57 152.87C400.12 154.4 396.21 154.5 392.68 153.17C385.14 150.59 377.54 148.23 369.87 146.08C362.2 143.94 354.47 142.02 346.68 140.32C338.9 138.62 331.08 137.14 323.21 135.9C315.34 134.65 307.44 133.63 299.52 132.84L299.52 372.76C301.08 415.86 265.53 460.66 213.33 477.44C209.95 478.54 206.53 479.51 203.07 480.34C199.62 481.18 196.13 481.88 192.62 482.43C189.11 482.99 185.58 483.42 182.03 483.7C178.49 483.98 174.93 484.12 171.38 484.12C166.93 484.18 162.48 483.95 158.05 483.45C153.63 482.94 149.24 482.16 144.92 481.11C140.59 480.05 136.34 478.73 132.18 477.14C128.02 475.55 123.96 473.7 120.04 471.61C115.44 469.19 111.11 466.31 107.11 463C103.1 459.7 99.45 455.99 96.2 451.94C92.96 447.89 90.14 443.51 87.79 438.89C85.43 434.26 83.56 429.4 82.2 424.39C69.97 376.89 107.66 322.84 165.69 303.93C173.21 301.26 180.97 299.36 188.87 298.26C196.77 297.15 204.76 296.84 212.72 297.34C220.68 297.84 228.57 299.15 236.27 301.23C243.97 303.32 251.44 306.17 258.56 309.76C259.59 310.34 260.6 310.94 261.6 311.56C262.6 312.19 263.59 312.83 264.56 313.5C265.53 314.16 266.49 314.85 267.44 315.55C268.38 316.26 269.31 316.98 270.22 317.72L270.22 28.44L285.87 29.44C299.8 30.72 423.25 40.68 450.56 87.61C490.67 156.44 414.58 225.42 410.74 228.41ZM268.52 364.09C267.65 360.94 266.46 357.9 264.96 355C263.46 352.1 261.66 349.36 259.6 346.84C257.54 344.31 255.22 342 252.68 339.95C250.14 337.91 247.39 336.13 244.48 334.65C241.59 333.15 238.6 331.83 235.54 330.69C232.49 329.56 229.36 328.62 226.19 327.88C223.01 327.14 219.8 326.59 216.55 326.25C213.31 325.91 210.05 325.77 206.79 325.83C204.02 325.84 201.25 325.96 198.48 326.19C195.72 326.41 192.97 326.75 190.23 327.19C187.49 327.63 184.77 328.17 182.08 328.83C179.38 329.48 176.72 330.23 174.08 331.09C129.56 345.46 100.41 384.14 108.94 417.28C109.81 420.43 111 423.47 112.5 426.37C114 429.27 115.79 432.01 117.86 434.53C119.92 437.06 122.24 439.37 124.78 441.41C127.32 443.46 130.07 445.24 132.98 446.72C138.47 449.38 144.21 451.49 150.11 453.01C156.02 454.53 162.07 455.46 168.16 455.77C174.25 456.09 180.36 455.8 186.39 454.9C192.43 454 198.35 452.5 204.09 450.42C248.75 436.05 277.9 397.37 268.52 364.09Z" />
	<path id="Layer" class="shp1" d="M0 0L512 0L512 512L0 512L0 0Z" />
</svg>